<svg xmlns="http://www.w3.org/2000/svg" width="73.874" height="67.616" viewBox="0 0 73.874 67.616"><defs><style>.a{fill:#eeeefc;}.b{fill:#10956d;}</style></defs><path d="M-589.807-96.838a22.2,22.2,0,0,0,.259,11.179c.1.362,1,.706,1.533.71,6.753.047,13.509-.045,20.26.086,1.558.03,3.093.814,4.659,1.156a2.051,2.051,0,0,0,1.537-.2,3.3,3.3,0,0,0,1.07-3.718,3.4,3.4,0,0,0-3.265-2.576c-1.753-.091-3.513-.027-5.27-.043-4.078-.036-7.015-2.72-7.076-6.456-.062-3.817,2.634-6.488,6.789-6.731.316-.018.63-.071,1.131-.13a13.73,13.73,0,0,1,.063-3.14c.154-.628.91-1.107,1.4-1.653.482.559,1.186,1.045,1.4,1.692.321.992-.069,2.551.522,3.028.675.545,2.094.175,3.189.191a8.926,8.926,0,0,1,2.454.067c.651.206,1.529.8,1.643,1.36.214,1.054-.686,1.5-1.681,1.516-1.921.025-3.843.019-5.765.021-1.483,0-2.966-.036-4.448,0a3.578,3.578,0,0,0-3.748,3.546,3.629,3.629,0,0,0,3.741,3.747c1.755.058,3.514,0,5.271.027a6.469,6.469,0,0,1,6.416,4.493,6.71,6.71,0,0,1-2.554,7.577,2.591,2.591,0,0,0-.89,1.543,5.291,5.291,0,0,1-5.342,4.816c-2.744.06-5.491.015-8.236.023-.493,0-1.112-.14-1.453.1-.65.455-1.474,1.082-1.581,1.741-.073.447.9,1.151,1.514,1.587.3.215.852.106,1.289.107,5.052.014,10.1-.011,15.154.046a6.538,6.538,0,0,0,5.018-1.933c2.936-2.881,6.076-5.553,9.094-8.352a3.993,3.993,0,0,0,.915-1.521,23.438,23.438,0,0,0-1.829-21.188c-.225-.377-.453-.754-.708-1.111-.637-.893-1.005-1.837.13-2.548,1.045-.654,1.748.068,2.3.9a26.327,26.327,0,0,1,3.865,21.839c-.188.744-.4,1.481-.6,2.222-.012.045.027.1.077.277.485.168,1.046.34,1.591.556,3.955,1.573,5.13,6.2,2.11,9.115-4.9,4.728-9.961,9.282-14.988,13.872-1.709,1.56-3.911,1.65-6.06,1.655-5.875.016-11.753-.174-17.624-.023a30.921,30.921,0,0,1-15.951-3.852c-.908-.5-1.892-.855-2.936-1.319a17.834,17.834,0,0,1-.978,2.283c-2.156,3.572-10.572,3.7-12.786.16a5.616,5.616,0,0,1-.8-2.782c-.069-6.314-.055-12.629-.027-18.943a4.957,4.957,0,0,1,4.791-5.089,41.582,41.582,0,0,1,4.774,0c2.006.108,3.181,1.055,4.811,3.685l3.141-1.395a28.573,28.573,0,0,1-.633-4.415,71.8,71.8,0,0,1,.515-8.513,3.3,3.3,0,0,0-.811-2.923,25.546,25.546,0,0,1-6.237-14.589c-.205-2.361.522-3.975,2.746-5.043,2.817-1.352,5.544-2.9,8.271-4.432a2.7,2.7,0,0,1,2.923.008c2.922,1.633,5.918,3.137,8.809,4.821a17.383,17.383,0,0,1,2.648,2.435,26.335,26.335,0,0,1,11.891-.618,55.668,55.668,0,0,1,5.838,1.659c1,.308,1.706.96,1.242,2.091-.473,1.155-1.414.976-2.362.587a23.727,23.727,0,0,0-15.645-.919,2.194,2.194,0,0,0-1.807,1.964,25.119,25.119,0,0,1-7.9,14.113C-585.646-96.028-586.49-95.866-589.807-96.838Zm19.782,36.586c3.9,0,7.8.108,11.693-.059a6.747,6.747,0,0,0,3.923-1.291c4.835-4.226,9.5-8.65,14.213-13.012.923-.854,1.526-2.022.753-3.067a4.444,4.444,0,0,0-2.731-1.665,4.121,4.121,0,0,0-2.741,1.134c-2.975,2.6-5.776,5.4-8.772,7.977a6.519,6.519,0,0,1-3.573,1.756c-6.414.2-12.836.171-19.254.124a4.691,4.691,0,0,1-2.414-.929,4.321,4.321,0,0,1-.271-7.045,7.047,7.047,0,0,1,3.612-1.276c2.844-.185,5.707-.047,8.563-.067,1.782-.013,2.8-.776,2.85-2.061.048-1.352-1.038-2.237-2.853-2.24-7.523-.012-15.048-.092-22.567.068-1.6.034-3.225.883-4.773,1.515a2.289,2.289,0,0,0-1.327,2.417c.065,3.623-.021,7.249.078,10.871a2.39,2.39,0,0,0,1.05,1.714c6.759,3.732,13.912,5.878,21.742,5.146C-571.9-60.331-570.958-60.256-570.024-60.252Zm-7.547-55.5c-.225-.348-.479-1.2-1.041-1.531-2.548-1.5-5.165-2.892-7.8-4.234a2.076,2.076,0,0,0-1.639.038c-2.588,1.318-5.158,2.679-7.659,4.154a2.305,2.305,0,0,0-1,1.746A22.011,22.011,0,0,0-588.7-99.934a2.042,2.042,0,0,0,3.025-.013C-580.875-103.954-578.392-109.147-577.571-115.75Zm-29.516,43.5c0,3.075.008,6.15,0,9.225a2.12,2.12,0,0,0,2.19,2.358,33.5,33.5,0,0,0,3.951.016,2.2,2.2,0,0,0,2.338-2.42c.012-6.15.024-12.3,0-18.451-.008-1.644-.789-2.379-2.451-2.438-1.152-.041-2.307-.037-3.459,0-1.855.056-2.545.766-2.557,2.65C-607.1-78.294-607.088-75.274-607.088-72.254Z" transform="translate(610.041 124.951)"/><path d="M-433.514-89.641c.729.968,1.5,1.546,1.441,2.033a2.047,2.047,0,0,1-1.393,1.347c-.367.072-1.26-.761-1.291-1.231C-434.794-88.036-434.143-88.625-433.514-89.641Z" transform="translate(492.504 101.274)"/><path class="a" d="M-540.823,27.16c-.934,0-1.874-.077-2.8.01-7.83.732-14.983-1.414-21.742-5.146a2.39,2.39,0,0,1-1.05-1.714c-.1-3.622-.013-7.248-.078-10.871a2.289,2.289,0,0,1,1.327-2.417c1.548-.632,3.168-1.481,4.773-1.515,7.52-.16,15.044-.08,22.567-.068,1.815,0,2.9.889,2.853,2.24-.046,1.285-1.068,2.048-2.85,2.061-2.855.02-5.719-.118-8.563.067A7.047,7.047,0,0,0-550,11.083a4.321,4.321,0,0,0,.271,7.045,4.692,4.692,0,0,0,2.414.929c6.419.047,12.84.077,19.254-.124a6.519,6.519,0,0,0,3.573-1.756c3-2.575,5.8-5.376,8.772-7.976a4.121,4.121,0,0,1,2.741-1.134,4.444,4.444,0,0,1,2.731,1.665c.773,1.045.169,2.213-.753,3.067-4.716,4.362-9.379,8.786-14.213,13.012a6.747,6.747,0,0,1-3.923,1.291C-533.021,27.27-536.924,27.162-540.823,27.16Z" transform="translate(580.839 37.538)"/><path class="b" d="M-550.454-109.062c-.82,6.6-3.3,11.8-8.1,15.8a2.042,2.042,0,0,1-3.025.013,22.011,22.011,0,0,1-8.015-15.642,2.3,2.3,0,0,1,1-1.746c2.5-1.475,5.071-2.836,7.659-4.154a2.076,2.076,0,0,1,1.639-.038c2.637,1.342,5.255,2.731,7.8,4.234C-550.933-110.262-550.679-109.41-550.454-109.062Zm-10.3,5.005c-.554-.472-.915-.994-1.388-1.129a2.8,2.8,0,0,0-2.012-.024c-.808.549-.6,1.441.082,2.114.66.655,1.364,1.263,2.028,1.913a1.655,1.655,0,0,0,2.688-.05c1.474-1.54,2.973-3.058,4.464-4.583.73-.746,1.129-1.582.236-2.414-.821-.765-1.6-.356-2.286.341C-558.169-106.647-559.405-105.416-560.758-104.057Z" transform="translate(582.924 118.264)"/><path class="a" d="M-601.088,11.114c0-3.02-.015-6.04.005-9.061.012-1.885.7-2.594,2.557-2.65,1.152-.035,2.307-.039,3.459,0,1.662.06,2.443.794,2.451,2.438.028,6.15.017,12.3,0,18.451a2.2,2.2,0,0,1-2.338,2.42A33.5,33.5,0,0,1-598.9,22.7a2.12,2.12,0,0,1-2.19-2.358C-601.08,17.265-601.088,14.19-601.088,11.114Z" transform="translate(604.041 41.583)"/><path d="M-550.74-91.16c1.353-1.359,2.588-2.59,3.812-3.833.686-.7,1.465-1.105,2.286-.341.893.832.495,1.668-.235,2.414-1.491,1.524-2.989,3.042-4.464,4.583a1.655,1.655,0,0,1-2.688.05c-.664-.65-1.368-1.258-2.028-1.913-.679-.673-.891-1.565-.082-2.114a2.8,2.8,0,0,1,2.012.024C-551.655-92.154-551.294-91.632-550.74-91.16Z" transform="translate(572.906 105.367)"/></svg>