<svg xmlns="http://www.w3.org/2000/svg" width="84.649" height="73.608" viewBox="0 0 84.649 73.608"><defs><style>.a{fill:#10956d;}.b{fill:#eeeefc;}.c{fill-rule:evenodd;}</style></defs><ellipse class="a" cx="18.5" cy="19" rx="18.5" ry="19" transform="translate(46.23 34.572)"/><rect class="b" width="71" height="10" transform="translate(3.23 2.572)"/><g transform="translate(0 0)"><path class="c" d="M.5,12.175A8.6,8.6,0,0,1,9.032,3.5H69.256a8.6,8.6,0,0,1,8.532,8.675V31.1a1.84,1.84,0,1,1-3.68,0V12.175A4.925,4.925,0,0,0,69.256,7.18H9.032A4.925,4.925,0,0,0,4.18,12.175V46.35a4.925,4.925,0,0,0,4.851,4.995H35.464a1.84,1.84,0,1,1,0,3.68H9.032A8.6,8.6,0,0,1,.5,46.35Z" transform="translate(-0.5 -3.5)"/><path class="c" d="M.5,8.34A1.84,1.84,0,0,1,2.34,6.5H75.948a1.84,1.84,0,0,1,0,3.68H2.34A1.84,1.84,0,0,1,.5,8.34Z" transform="translate(-0.5 4.541)"/><path class="c" d="M2.5,13.34A1.84,1.84,0,0,1,4.34,11.5H11.7a1.84,1.84,0,0,1,0,3.68H4.34A1.84,1.84,0,0,1,2.5,13.34Z" transform="translate(4.861 17.943)"/><path class="c" d="M2.5,15.84A1.84,1.84,0,0,1,4.34,14H19.062a1.84,1.84,0,1,1,0,3.68H4.34A1.84,1.84,0,0,1,2.5,15.84Z" transform="translate(4.861 24.644)"/><path class="c" d="M32.742,16.18A16.562,16.562,0,1,0,49.3,32.742,16.562,16.562,0,0,0,32.742,16.18ZM12.5,32.742A20.242,20.242,0,1,1,32.742,52.984,20.242,20.242,0,0,1,12.5,32.742Z" transform="translate(31.665 20.623)"/><path class="c" d="M29.42,17.539a1.84,1.84,0,0,1,2.6,2.6L24.662,27.5a1.841,1.841,0,0,1-2.6,0l-5.521-5.521a1.84,1.84,0,0,1,2.6-2.6l4.219,4.22Z" transform="translate(41.046 32.685)"/></g></svg>